G04 #@! TF.FileFunction,Soldermask,Top*
%FSLAX46Y46*%
G04 Gerber Fmt 4.6, Leading zero omitted, Abs format (unit mm)*
G04 Created by KiCad (PCBNEW 4.0.1-stable) date 23/05/2018 12:47:39*
%MOMM*%
G01*
G04 APERTURE LIST*
%ADD10C,0.100000*%
%ADD11R,1.650000X1.900000*%
%ADD12R,1.700480X1.799540*%
%ADD13R,1.799540X1.700480*%
%ADD14R,1.700000X1.900000*%
%ADD15R,2.099260X1.159460*%
%ADD16R,6.798260X10.399980*%
%ADD17R,3.798520X16.498520*%
%ADD18R,2.200000X2.200000*%
%ADD19O,2.200000X2.200000*%
%ADD20C,2.350000*%
%ADD21R,3.000000X2.400000*%
%ADD22O,3.000000X2.400000*%
%ADD23R,2.400000X3.000000*%
%ADD24O,2.400000X3.000000*%
%ADD25C,3.600000*%
G04 APERTURE END LIST*
D10*
D11*
X88210000Y-44170000D03*
X88210000Y-46670000D03*
X114880000Y-46670000D03*
X114880000Y-44170000D03*
D12*
X120830340Y-27940000D03*
X117929660Y-27940000D03*
D13*
X123190000Y-33200340D03*
X123190000Y-30299660D03*
X115570000Y-33200340D03*
X115570000Y-30299660D03*
D12*
X117929660Y-35560000D03*
X120830340Y-35560000D03*
D14*
X73660000Y-38180000D03*
X73660000Y-35480000D03*
X81280000Y-38180000D03*
X81280000Y-35480000D03*
X77470000Y-38180000D03*
X77470000Y-35480000D03*
D15*
X105905300Y-37465000D03*
X105907840Y-36195000D03*
X105907840Y-34925000D03*
X105907840Y-33655000D03*
X105907840Y-32385000D03*
X105907840Y-31115000D03*
X105907840Y-29845000D03*
X105907840Y-28575000D03*
D16*
X99060000Y-31750000D03*
D15*
X105905300Y-26035000D03*
X105907840Y-27305000D03*
X92212160Y-26035000D03*
X92212160Y-27305000D03*
X92212160Y-28575000D03*
X92212160Y-29845000D03*
X92212160Y-31115000D03*
X92212160Y-32385000D03*
X92212160Y-33655000D03*
X92212160Y-34925000D03*
X92212160Y-36195000D03*
X92214700Y-37465000D03*
D17*
X99060000Y-31750000D03*
D18*
X109800000Y-49230000D03*
D19*
X108100000Y-44150000D03*
X106400000Y-49230000D03*
X104700000Y-44150000D03*
X103000000Y-49230000D03*
X101300000Y-44150000D03*
X99600000Y-49230000D03*
X97900000Y-44150000D03*
X96200000Y-49230000D03*
X94500000Y-44150000D03*
X92800000Y-49230000D03*
D20*
X79970000Y-27940000D03*
X74970000Y-27940000D03*
D21*
X76200000Y-64770000D03*
D22*
X76200000Y-62230000D03*
X76200000Y-59690000D03*
X76200000Y-57150000D03*
X76200000Y-54610000D03*
X76200000Y-52070000D03*
D23*
X102870000Y-63500000D03*
D24*
X100330000Y-63500000D03*
X97790000Y-63500000D03*
X95250000Y-63500000D03*
X92710000Y-63500000D03*
X90170000Y-63500000D03*
D20*
X123320000Y-50350000D03*
X123320000Y-45350000D03*
X123420000Y-59160000D03*
X123420000Y-64160000D03*
D14*
X73660000Y-43100000D03*
X73660000Y-45800000D03*
X81280000Y-43100000D03*
X81280000Y-45800000D03*
X77470000Y-43100000D03*
X77470000Y-45800000D03*
D25*
X109728000Y-62484000D03*
X125700000Y-25600000D03*
X83820000Y-62484000D03*
M02*
