M48
;DRILL file {KiCad 4.0.1-stable} date 23/05/2018 12:48:05
;FORMAT={-:-/ absolute / metric / decimal}
FMAT,2
METRIC,TZ
T1C0.500
T2C1.000
T3C1.100
T4C1.200
T5C3.200
%
G90
G05
M71
T1
X79.1Y-35.5
X84.7Y-28.6
X86.106Y-25.654
X87.884Y-53.594
X89.408Y-27.432
X89.408Y-34.036
X94.996Y-25.908
X102.108Y-25.908
X105.156Y-57.404
X108.3Y-39.2
X114.046Y-37.846
X114.808Y-51.054
X115.824Y-24.892
X117.856Y-38.608
X122.428Y-39.37
T2
X92.8Y-49.23
X94.5Y-44.15
X96.2Y-49.23
X97.9Y-44.15
X99.6Y-49.23
X101.3Y-44.15
X103.Y-49.23
X104.7Y-44.15
X106.4Y-49.23
X108.1Y-44.15
X109.8Y-49.23
T3
X74.97Y-27.94
X79.97Y-27.94
X123.32Y-45.35
X123.32Y-50.35
X123.42Y-59.16
X123.42Y-64.16
T4
X76.2Y-52.07
X76.2Y-54.61
X76.2Y-57.15
X76.2Y-59.69
X76.2Y-62.23
X76.2Y-64.77
X90.17Y-63.5
X92.71Y-63.5
X95.25Y-63.5
X97.79Y-63.5
X100.33Y-63.5
X102.87Y-63.5
T5
X83.82Y-62.484
X109.728Y-62.484
X125.7Y-25.6
T0
M30
